<svg width="294" height="210" viewBox="0 0 294 210" fill="none" xmlns="http://www.w3.org/2000/svg">
<path d="M259.687 105C259.687 162.175 213.783 208.5 157.187 208.5C100.592 208.5 54.6873 162.175 54.6873 105C54.6873 47.825 100.592 1.5 157.187 1.5C213.783 1.5 259.687 47.825 259.687 105Z" stroke="white" stroke-width="3"/>
<path d="M55.0324 92.5C31.5324 84.1667 -10.7125 38.4 5.68746 20C22.0875 1.59999 74.8913 17.8333 92.2246 25.5" stroke="white" stroke-width="3"/>
<path d="M221.187 183.5C234.021 198 273.287 215.6 287.687 204C302.087 192.4 275.187 157 252.687 138.5" stroke="white" stroke-width="3"/>
<path d="M86.0003 132.574C86.2379 133.537 87.7572 139.161 94.903 137.398C99.9671 136.148 100.63 132.557 99.9173 129.668C98.8365 125.287 95.3848 124.655 92.3357 124.32C90.5357 124.105 88.6894 123.835 88.3292 122.375C88.0379 121.194 88.8017 120.149 90.2619 119.789C91.7843 119.413 92.6978 120.177 92.989 121.357L93.1883 122.165L97.5835 121.41L97.3075 120.292C96.8783 118.552 94.7735 114.028 89.1812 115.408C83.4646 116.818 83.6048 121.662 84.0417 123.433C85.1915 128.093 88.5585 128.515 91.6928 128.928C93.5314 129.167 95.2692 129.397 95.5988 130.733C95.7444 131.323 95.7795 132.534 93.8222 133.017C91.6163 133.561 90.5867 132.728 90.2877 131.516L90.0884 130.708L85.7244 131.455L86.0003 132.574ZM102.243 112.35L105.968 127.45C107.148 132.234 110.225 133.617 114.357 132.598C118.489 131.579 120.663 128.9 119.483 124.115L115.758 109.016L111.439 110.082L115.164 125.181C115.57 126.827 115.048 127.78 113.277 128.217C111.537 128.647 110.693 128.031 110.286 126.384L106.561 111.285L102.243 112.35ZM127.948 129.08L132.267 128.015L130.68 121.584L131.737 121.323C138.075 119.759 138.011 115.227 137.183 111.871C136.355 108.516 134.296 104.443 127.958 106.006L122.583 107.332L127.948 129.08ZM127.982 110.647L129.038 110.387C131.648 109.743 132.412 111.104 132.865 112.937C133.309 114.739 133.243 116.205 130.625 116.95L129.599 117.203L127.982 110.647ZM146.552 124.49L157.27 121.846L156.167 117.372L149.735 118.959L145.474 101.685L141.186 102.742L146.552 124.49ZM162.235 120.621L166.709 119.517L166.776 115.513L172.244 114.164L174.197 117.67L178.639 116.574L167.091 96.3513L163.083 97.3401L162.235 120.621ZM167.126 105.176C169.496 109.304 169.72 109.678 169.983 110.074L166.907 110.833L167.126 105.176ZM187.314 114.434L191.632 113.368L189.823 106.036L191.952 90.2178L187.51 91.3139C186.836 95.7977 186.54 98.7383 186.269 100.849L180.768 92.9772L176.232 94.0963L185.505 107.102L187.314 114.434ZM202.755 110.624L213.847 107.888L212.766 103.507L205.993 105.178L204.989 101.108L210.488 99.7514L209.407 95.3708L203.908 96.7275L202.789 92.1915L209.376 90.5665L208.295 86.1858L197.39 88.8763L202.755 110.624ZM220.365 106.28L224.683 105.214L223.097 98.783L224.122 98.5301L229.25 104.087L234.097 102.892L228.211 96.4007C230.297 94.3039 230.167 91.3697 229.6 89.0707C228.772 85.7153 226.712 81.642 220.374 83.2057L214.999 84.5318L220.365 106.28ZM220.399 87.847L221.455 87.5864C224.096 86.9348 224.829 88.3031 225.281 90.1361C225.726 91.9381 225.69 93.3971 223.041 94.1495L222.016 94.4024L220.399 87.847Z" fill="white"/>
</svg>
